<?xml version="1.0" encoding="UTF-8"?>
<svg id="Layer_1" data-name="Layer 1" xmlns="http://www.w3.org/2000/svg" viewBox="0 0 160 50">
  <defs>
    <style>
      .cls-1 {
        stroke: #39e991;
        stroke-linecap: round;
        stroke-linejoin: round;
        stroke-width: .5px;
      }

      .cls-1, .cls-2 {
        fill: #39e991;
      }

      .cls-2, .cls-3 {
        stroke-width: 0px;
      }

      .cls-3 {
        fill: #262833;
      }
    </style>
  </defs>
  <g id="SvgjsG1320">
    <path class="cls-2" d="M37.94,41c-1.29-.87-2.4-1.94-3.29-3.2,2.35-2.44,3.94-5.63,3.38-8.98-.35-2.08-2.35-4.98-4.33-2.46-1.54,1.96-1.89,4.87-1.42,7.26.22,1.12.61,2.14,1.13,3.08-1.45,1.37-3.27,2.76-5.02,2.66-1.71-.1-2.81-2.26-3.84-3.37-.84-.89-1.86-1.66-3.08-1.89-2.25-.44-4.41,1-6.28,2.05-1.44.81-3.44,2.08-5.17,1.44-1.59-.57-2.52-2.42-3.17-3.85-.81-1.8-1.96-3.77-2.24-5.75-.25-1.69,1.23-3.22,2.14-4.49,1.74-2.43,3.34-5.81,5.97-7.41,1.76-1.07,3.45.43,5.02,1.16,1.05.51,2.12.75,3.27.92,2.79.44,3.51-4.39,3.95-6.2.2-.85.63-4.24,1.86-4.2,1.29.29,2.26,2.4,2.86,3.43.39.66,4.08,8.3,4.16,8.27.37-.16-3.21-7.92-3.56-8.6-.67-1.31-1.68-3.56-3.26-3.97-1.33-.27-2,1.22-2.36,2.24-.5,1.35-1.48,7.99-3.52,7.68-1.69-.08-3.48-1.36-5.04-2.16-2.03-1.02-3.9-.47-5.54.99-1.78,1.59-3.06,3.66-4.48,5.56-1.44,1.96-3.72,4.12-3.54,6.75.17,2.62,1.67,5.64,2.88,7.93,1.09,2.08,2.76,4.01,5.26,4.19,2.91.21,5.37-1.82,7.84-3.04.77-.4,1.72-.81,2.61-.62,2.01.58,3,3,4.63,4.18,1.74,1.27,3.76,1,5.5-.05,1.09-.66,2.17-1.48,3.13-2.44,1.86,2.4,4.64,4.07,7.57,5.04,0-.03.02-.06.03-.09-.02.02-3.65-1.81-4.01-2.05ZM32.76,31.28c.12-1.54.66-3.7,1.95-4.72,1.8-1.43,2.33,2.84,2.27,3.76-.09,1.8-.81,3.57-2.08,4.87-.33.35-.72.75-1.14,1.16-.75-1.58-1.13-3.32-1-5.07Z"/>
  </g>
  <g id="SvgjsG1321">
    <path class="cls-3" d="M51.52,20.21c-.28.45-.65.76-1.11.95.56.19,1.03.55,1.44,1.08.4.53.6,1.12.6,1.75,0,1.26-.4,2.16-1.2,2.71-.8.55-1.82.83-3.07.83h-5.27v-12.2h5.07c2.65,0,3.97,1.13,3.97,3.39,0,.55-.14,1.04-.43,1.49h0ZM48.03,20.18c.43,0,.75-.13.96-.4s.31-.58.31-.95c0-.32-.12-.6-.37-.84s-.54-.36-.88-.36h-2.49v2.55h2.47,0ZM49.38,24.85c.29-.27.43-.6.43-.98s-.14-.72-.43-.98c-.29-.27-.71-.4-1.25-.4h-2.57v2.77h2.62c.51,0,.91-.13,1.2-.4h0ZM56.55,27.11c-.76-.43-1.37-1.01-1.81-1.74-.45-.73-.67-1.54-.67-2.4s.22-1.65.67-2.39c.45-.73,1.05-1.32,1.81-1.74s1.59-.64,2.49-.64,1.74.21,2.5.64c.77.43,1.38,1.01,1.83,1.74s.68,1.53.68,2.39-.23,1.67-.68,2.4c-.45.73-1.06,1.32-1.83,1.74-.77.43-1.6.64-2.5.64s-1.73-.21-2.49-.64ZM57.77,20.72c-.39.23-.7.54-.92.93s-.33.83-.33,1.31.11.95.33,1.34.52.71.9.93c.38.23.81.34,1.29.34s.89-.11,1.28-.34.69-.54.91-.94c.22-.4.33-.85.33-1.34s-.11-.92-.33-1.31-.53-.71-.91-.93c-.38-.23-.81-.34-1.28-.34s-.88.11-1.27.34h0ZM68.13,27.11c-.76-.43-1.37-1.01-1.81-1.74-.45-.73-.67-1.54-.67-2.4s.22-1.65.67-2.39,1.05-1.32,1.81-1.74,1.59-.64,2.49-.64,1.74.21,2.5.64,1.38,1.01,1.83,1.74.68,1.53.68,2.39-.23,1.67-.68,2.4c-.45.73-1.06,1.32-1.83,1.74-.77.43-1.6.64-2.5.64s-1.73-.21-2.49-.64h0ZM69.35,20.72c-.39.23-.7.54-.92.93-.22.39-.33.83-.33,1.31,0,.5.11.95.33,1.34.22.39.52.71.9.93s.81.34,1.29.34.89-.11,1.28-.34.69-.54.91-.94c.22-.4.33-.85.33-1.34s-.11-.92-.33-1.31-.53-.71-.91-.93c-.38-.23-.81-.34-1.28-.34s-.88.11-1.27.34h0ZM80.18,14.92v7.34l3.12-3.85h3.05l-3.69,4.27,3.84,4.86h-3.02l-2.4-3-.9,1.03v1.97h-2.5v-12.62h2.5ZM93.45,27.54v-12.2h2.64v12.2h-2.64ZM102,24.27c0,.39.07.71.2.98.13.26.45.39.93.39.22,0,.43-.01.63-.03v2.1c-.4.04-.77.07-1.12.07-.71,0-1.29-.06-1.73-.18s-.78-.34-1.03-.68c-.24-.33-.37-.81-.37-1.44v-5.09h-1.12v-2.19h1.12v-2.45h2.47v2.45h1.84v2.19h-1.84v3.87ZM123.69,27.54h-2.65v-5.82l-3.74,4.34-3.74-4.34v5.82h-2.65v-12.58l6.39,7.21,6.39-7.21v12.58h0ZM131.83,14.95l6.69,12.58h-2.89l-.97-1.87h-5.69l-.93,1.87h-2.9l6.69-12.58ZM133.4,23.41l-1.57-3.19-1.55,3.19h3.12ZM143.12,17.62v9.91h-2.65v-9.91h-3.55v-2.29h9.75v2.29h-3.54ZM150.89,20.34h5.84v2.3h-5.84v2.6h6.61v2.29h-9.25v-12.2h9.25v2.29h-6.61v2.72Z"/>
  </g>
  <g id="SvgjsG1322">
    <path class="cls-1" d="M44.85,31.74v.28h-1.64v1.16h1.53v.28h-1.53v1.54h-.3v-3.25h1.95ZM48.11,31.74v3.25h-.3v-3.25h.3ZM51.74,31.74l1.98,2.85h0v-2.85h.3v3.25h-.39l-1.98-2.85h0v2.85h-.3v-3.25h.39,0ZM58.18,34.72c.47,0,.83-.12,1.1-.35.27-.24.41-.56.41-.97,0-.44-.13-.78-.4-1.02-.27-.24-.64-.36-1.12-.36h-.63v2.7h.65ZM58.24,31.74c.55,0,.97.15,1.28.44.31.29.46.7.47,1.21,0,.3-.07.57-.2.82-.14.24-.33.44-.59.58-.26.14-.57.21-.94.21h-1.03v-3.25h1.02,0ZM66.87,31.74v3.25h-.3v-3.25h.3ZM72.24,31.74v.28h-1.11v2.98h-.3v-2.98h-1.11v-.28h2.53ZM75.24,34.58c.06,0,.11.02.16.06.04.04.06.09.06.16s-.02.11-.06.16c-.04.04-.09.06-.16.06s-.11-.02-.16-.06c-.04-.04-.06-.09-.06-.16s.02-.11.06-.16c.04-.04.09-.06.16-.06ZM82.48,31.74v2.98h1.52v.28h-1.82v-3.25h.3,0ZM86.92,33.37c0,.41.13.75.38,1.02.25.27.59.41,1,.41.41,0,.75-.14,1-.41.25-.27.38-.61.38-1.03,0-.42-.13-.76-.38-1.03-.25-.26-.59-.4-1.01-.41-.41,0-.74.13-.99.4-.25.27-.38.61-.38,1.03h0ZM88.29,31.66c.33,0,.62.07.88.22.25.15.45.35.59.61.14.26.21.56.21.88,0,.5-.16.91-.47,1.22-.32.32-.72.48-1.21.48-.49,0-.89-.16-1.2-.48-.31-.32-.47-.73-.48-1.23,0-.5.16-.91.47-1.22.31-.32.71-.48,1.21-.49ZM92.87,31.74l1.05,2.85,1.06-2.85h.32l-1.24,3.25h-.3l-1.21-3.25h.33ZM100.06,31.74v.28h-1.69v1.16h1.58v.28h-1.58v1.27h1.76v.28h-2.06v-3.25h1.99ZM106.99,31.74v3.25h-.3v-3.25h.3ZM112.37,31.74v.28h-1.11v2.98h-.3v-2.98h-1.11v-.28h2.53ZM115.37,34.58c.06,0,.11.02.16.06.04.04.06.09.06.16s-.02.11-.06.16c-.04.04-.09.06-.16.06s-.11-.02-.16-.06c-.04-.04-.06-.09-.06-.16s.02-.11.06-.16c.04-.04.09-.06.16-.06ZM123.32,34.72c.26,0,.46-.06.6-.17s.21-.26.21-.46c0-.21-.07-.37-.21-.49s-.33-.18-.56-.18h-.75v1.3h.72ZM123.25,33.15c.22,0,.4-.05.53-.14.13-.09.2-.23.2-.4,0-.38-.23-.57-.69-.58h-.69v1.13h.65ZM123.26,31.74c.34,0,.59.07.76.21.17.14.26.36.26.65,0,.17-.05.32-.15.44s-.24.2-.43.24h0c.21.02.38.1.52.25.13.15.2.33.21.56,0,.29-.1.51-.29.67-.19.16-.46.24-.79.24h-1.05v-3.25h.96ZM127.64,33.37c0,.41.13.75.38,1.02s.59.41,1,.41c.41,0,.75-.14,1-.41s.38-.61.38-1.03c0-.42-.13-.76-.38-1.03-.25-.26-.59-.4-1.01-.41-.41,0-.74.13-.99.4-.25.27-.38.61-.38,1.03h0ZM129.01,31.66c.33,0,.62.07.88.22.25.15.45.35.59.61.14.26.21.56.21.88,0,.5-.16.91-.47,1.22-.32.32-.72.48-1.21.48-.49,0-.89-.16-1.2-.48-.31-.32-.47-.73-.48-1.23,0-.5.16-.91.47-1.22.31-.32.71-.48,1.21-.49h0ZM133.82,33.37c0,.41.13.75.38,1.02s.59.41,1,.41c.41,0,.75-.14,1-.41s.38-.61.38-1.03c0-.42-.13-.76-.38-1.03-.25-.26-.59-.4-1.01-.41-.41,0-.74.13-.99.4-.25.27-.38.61-.38,1.03h0ZM135.19,31.66c.33,0,.62.07.88.22.25.15.45.35.59.61.14.26.21.56.21.88,0,.5-.16.91-.47,1.22-.32.32-.72.48-1.21.48-.49,0-.89-.16-1.2-.48-.31-.32-.47-.73-.48-1.23,0-.5.16-.91.47-1.22.31-.32.71-.48,1.21-.49h0ZM140.21,31.74v1.43h.03l1.58-1.43h.42l-1.64,1.49,1.74,1.76h-.44l-1.65-1.68h-.03v1.68h-.3v-3.25h.3ZM148.9,31.74v3.25h-.3v-3.25h.3ZM154.28,31.74v.28h-1.11v2.98h-.3v-2.98h-1.11v-.28h2.53ZM157.28,34.58c.06,0,.11.02.16.06.04.04.06.09.06.16,0,.06-.02.11-.06.16-.04.04-.09.06-.16.06s-.11-.02-.16-.06c-.04-.04-.06-.09-.06-.16,0-.06.02-.11.06-.16.04-.04.09-.06.16-.06Z"/>
  </g>
</svg>